<svg width="56" height="56" viewBox="0 0 56 56" fill="none" xmlns="http://www.w3.org/2000/svg">
<g filter="url(#filter0_d_73_26)">
<circle cx="28" cy="27" r="25" fill="#FBE887"/>
</g>
<circle cx="28" cy="27" r="21" fill="url(#paint0_linear_73_26)"/>
<circle cx="28" cy="27" r="20" fill="url(#paint1_radial_73_26)"/>
<path d="M32.9311 13.0123H33.1292C33.2903 14.9921 32.5347 16.4677 31.6058 17.5253C30.7017 18.5828 29.4631 19.6157 27.4567 19.4559C27.3204 17.513 28.0883 16.148 29.0048 15.0782C29.8595 14.0821 31.42 13.1968 32.9311 13V13.0123Z" fill="#9A4C03"/>
<path d="M39 33.5727V33.6342C38.4426 35.3311 37.6376 36.7822 36.6467 38.1348C35.755 39.3645 34.6527 41 32.6957 41C30.9989 41 29.8842 39.9179 28.1379 39.8933C26.3048 39.8687 25.2892 40.8033 23.6171 41.0369H23.0474C21.8212 40.8647 20.818 39.8933 20.0996 39.0202C17.9569 36.4133 16.3096 33.0808 16 28.8261V27.5718C16.1362 24.5222 17.6225 22.0382 19.6042 20.8331C20.657 20.1937 22.0937 19.6526 23.6914 19.8986C24.385 20.0092 25.0786 20.2429 25.6979 20.4642C26.28 20.6856 27.0108 21.0791 27.7044 21.0668C28.175 21.0545 28.6333 20.8085 29.1163 20.6364C30.5035 20.1445 31.8535 19.5665 33.637 19.8371C35.7798 20.1568 37.3032 21.1036 38.2445 22.567C36.4238 23.7106 34.9995 25.4444 35.2348 28.3957C35.4577 31.0764 37.0183 32.6504 38.9876 33.5727H39Z" fill="#9A4C03"/>
<defs>
<filter id="filter0_d_73_26" x="0" y="0" width="56" height="56" filterUnits="userSpaceOnUse" color-interpolation-filters="sRGB">
<feFlood flood-opacity="0" result="BackgroundImageFix"/>
<feColorMatrix in="SourceAlpha" type="matrix" values="0 0 0 0 0 0 0 0 0 0 0 0 0 0 0 0 0 0 127 0" result="hardAlpha"/>
<feMorphology radius="1" operator="dilate" in="SourceAlpha" result="effect1_dropShadow_73_26"/>
<feOffset dy="1"/>
<feGaussianBlur stdDeviation="1"/>
<feComposite in2="hardAlpha" operator="out"/>
<feColorMatrix type="matrix" values="0 0 0 0 0 0 0 0 0 0 0 0 0 0 0 0 0 0 0.4 0"/>
<feBlend mode="normal" in2="BackgroundImageFix" result="effect1_dropShadow_73_26"/>
<feBlend mode="normal" in="SourceGraphic" in2="effect1_dropShadow_73_26" result="shape"/>
</filter>
<linearGradient id="paint0_linear_73_26" x1="28" y1="6" x2="28" y2="48" gradientUnits="userSpaceOnUse">
<stop stop-color="white"/>
<stop offset="1" stop-color="#FFBF1C"/>
</linearGradient>
<radialGradient id="paint1_radial_73_26" cx="0" cy="0" r="1" gradientUnits="userSpaceOnUse" gradientTransform="translate(28 15) rotate(90) scale(26)">
<stop stop-color="#F9F1CA" stop-opacity="0.46"/>
<stop offset="1" stop-color="#FFBF1C"/>
</radialGradient>
</defs>
</svg>
