<svg width="23" height="23" viewBox="0 0 23 23" fill="none" xmlns="http://www.w3.org/2000/svg">
<circle cx="11.5" cy="11.5" r="11" fill="#6FAB6A" stroke="white"/>
<path d="M13.0711 7.41421C13.8522 6.63317 15.1185 6.63317 15.8996 7.41421C16.6806 8.19526 16.6806 9.46159 15.8996 10.2426L10.2427 15.8995C9.46166 16.6805 8.19533 16.6805 7.41428 15.8995C6.63324 15.1184 6.63324 13.8521 7.41428 13.0711L13.0711 7.41421Z" fill="white"/>
<path d="M15.8995 13.0711C16.6806 13.8522 16.6806 15.1185 15.8995 15.8996C15.1185 16.6806 13.8521 16.6806 13.0711 15.8996L7.41423 10.2427C6.63318 9.46166 6.63318 8.19533 7.41423 7.41428C8.19528 6.63323 9.46161 6.63323 10.2427 7.41428L15.8995 13.0711Z" fill="white"/>
</svg>
