<svg width="34" height="34" viewBox="0 0 34 34" fill="none" xmlns="http://www.w3.org/2000/svg">
<g filter="url(#filter0_d_21_83)">
<path d="M32 16C32 24.2843 25.2843 31 17 31C8.71573 31 2 24.2843 2 16C2 7.71573 8.71573 1 17 1C25.2843 1 32 7.71573 32 16Z" fill="#67B927"/>
</g>
<path d="M14.6672 16C14.6672 14.7114 15.7116 13.6665 17.0003 13.6665C18.2889 13.6665 19.3339 14.7114 19.3339 16C19.3339 17.2886 18.2889 18.3335 17.0003 18.3335C15.7116 18.3335 14.6672 17.2886 14.6672 16ZM13.4057 16C13.4057 17.9852 15.015 19.5944 17.0003 19.5944C18.9856 19.5944 20.5948 17.9852 20.5948 16C20.5948 14.0148 18.9856 12.4056 17.0003 12.4056C15.015 12.4056 13.4057 14.0148 13.4057 16ZM19.8971 12.2631C19.897 12.4292 19.9462 12.5916 20.0385 12.7298C20.1307 12.868 20.2619 12.9757 20.4154 13.0393C20.5688 13.103 20.7377 13.1197 20.9007 13.0873C21.0637 13.055 21.2134 12.975 21.3309 12.8576C21.4484 12.7402 21.5285 12.5905 21.561 12.4276C21.5934 12.2647 21.5769 12.0958 21.5134 11.9423C21.4498 11.7887 21.3422 11.6575 21.2041 11.5652C21.066 11.4728 20.9036 11.4235 20.7375 11.4234H20.7371C20.5144 11.4235 20.3009 11.512 20.1434 11.6694C19.9859 11.8269 19.8973 12.0404 19.8971 12.2631ZM14.1722 21.6978C13.4897 21.6668 13.1187 21.5531 12.8722 21.457C12.5454 21.3298 12.3122 21.1783 12.067 20.9334C11.8218 20.6886 11.67 20.4556 11.5434 20.1288C11.4473 19.8824 11.3336 19.5114 11.3026 18.8289C11.2686 18.091 11.2618 17.8694 11.2618 16.0001C11.2618 14.1307 11.2692 13.9097 11.3026 13.1712C11.3336 12.4887 11.4482 12.1184 11.5434 11.8713C11.6706 11.5445 11.8221 11.3113 12.067 11.0661C12.3118 10.821 12.5448 10.6692 12.8722 10.5425C13.1186 10.4464 13.4897 10.3327 14.1722 10.3017C14.9101 10.2678 15.1317 10.261 17.0003 10.261C18.8689 10.261 19.0907 10.2683 19.8292 10.3017C20.5117 10.3328 20.8821 10.4473 21.1292 10.5425C21.456 10.6692 21.6892 10.8213 21.9344 11.0661C22.1796 11.311 22.3308 11.5445 22.458 11.8713C22.5541 12.1177 22.6678 12.4887 22.6988 13.1712C22.7328 13.9097 22.7396 14.1307 22.7396 16.0001C22.7396 17.8694 22.7328 18.0904 22.6988 18.8289C22.6678 19.5114 22.5535 19.8823 22.458 20.1288C22.3308 20.4556 22.1793 20.6888 21.9344 20.9334C21.6896 21.178 21.456 21.3298 21.1292 21.457C20.8828 21.5531 20.5117 21.6668 19.8292 21.6978C19.0913 21.7318 18.8697 21.7385 17.0003 21.7385C15.1309 21.7385 14.9098 21.7318 14.1722 21.6978ZM14.1142 9.04239C13.369 9.07633 12.8598 9.19449 12.415 9.36753C11.9545 9.54622 11.5646 9.78596 11.175 10.1749C10.7854 10.5639 10.5462 10.9544 10.3675 11.4149C10.1945 11.8599 10.0763 12.3688 10.0424 13.114C10.0079 13.8604 10 14.099 10 16C10 17.901 10.0079 18.1396 10.0424 18.886C10.0763 19.6312 10.1945 20.1401 10.3675 20.5851C10.5462 21.0453 10.7854 21.4363 11.175 21.8251C11.5645 22.2139 11.9545 22.4533 12.415 22.6325C12.8606 22.8055 13.369 22.9237 14.1142 22.9576C14.861 22.9915 15.0992 23 17.0003 23C18.9013 23 19.14 22.9921 19.8864 22.9576C20.6316 22.9237 21.1405 22.8055 21.5855 22.6325C22.0458 22.4533 22.436 22.214 22.8256 21.8251C23.2152 21.4361 23.4538 21.0453 23.633 20.5851C23.8061 20.1401 23.9248 19.6312 23.9582 18.886C23.9921 18.139 24 17.901 24 16C24 14.099 23.9921 13.8604 23.9582 13.114C23.9242 12.3688 23.8061 11.8596 23.633 11.4149C23.4538 10.9547 23.2146 10.5645 22.8256 10.1749C22.4366 9.78534 22.0458 9.54622 21.5861 9.36753C21.1405 9.19449 20.6316 9.07577 19.8869 9.04239C19.1405 9.00846 18.9019 9 17.0008 9C15.0998 9 14.861 9.0079 14.1142 9.04239Z" fill="white"/>
<path d="M14.6672 16C14.6672 14.7114 15.7116 13.6665 17.0003 13.6665C18.2889 13.6665 19.3339 14.7114 19.3339 16C19.3339 17.2886 18.2889 18.3335 17.0003 18.3335C15.7116 18.3335 14.6672 17.2886 14.6672 16ZM13.4057 16C13.4057 17.9852 15.015 19.5944 17.0003 19.5944C18.9856 19.5944 20.5948 17.9852 20.5948 16C20.5948 14.0148 18.9856 12.4056 17.0003 12.4056C15.015 12.4056 13.4057 14.0148 13.4057 16ZM19.8971 12.2631C19.897 12.4292 19.9462 12.5916 20.0385 12.7298C20.1307 12.868 20.2619 12.9757 20.4154 13.0393C20.5688 13.103 20.7377 13.1197 20.9007 13.0873C21.0637 13.055 21.2134 12.975 21.3309 12.8576C21.4484 12.7402 21.5285 12.5905 21.561 12.4276C21.5934 12.2647 21.5769 12.0958 21.5134 11.9423C21.4498 11.7887 21.3422 11.6575 21.2041 11.5652C21.066 11.4728 20.9036 11.4235 20.7375 11.4234H20.7371C20.5144 11.4235 20.3009 11.512 20.1434 11.6694C19.9859 11.8269 19.8973 12.0404 19.8971 12.2631ZM14.1722 21.6978C13.4897 21.6668 13.1187 21.5531 12.8722 21.457C12.5454 21.3298 12.3122 21.1783 12.067 20.9334C11.8218 20.6886 11.67 20.4556 11.5434 20.1288C11.4473 19.8824 11.3336 19.5114 11.3026 18.8289C11.2686 18.091 11.2618 17.8694 11.2618 16.0001C11.2618 14.1307 11.2692 13.9097 11.3026 13.1712C11.3336 12.4887 11.4482 12.1184 11.5434 11.8713C11.6706 11.5445 11.8221 11.3113 12.067 11.0661C12.3118 10.821 12.5448 10.6692 12.8722 10.5425C13.1186 10.4464 13.4897 10.3327 14.1722 10.3017C14.9101 10.2678 15.1317 10.261 17.0003 10.261C18.8689 10.261 19.0907 10.2683 19.8292 10.3017C20.5117 10.3328 20.8821 10.4473 21.1292 10.5425C21.456 10.6692 21.6892 10.8213 21.9344 11.0661C22.1796 11.311 22.3308 11.5445 22.458 11.8713C22.5541 12.1177 22.6678 12.4887 22.6988 13.1712C22.7328 13.9097 22.7396 14.1307 22.7396 16.0001C22.7396 17.8694 22.7328 18.0904 22.6988 18.8289C22.6678 19.5114 22.5535 19.8823 22.458 20.1288C22.3308 20.4556 22.1793 20.6888 21.9344 20.9334C21.6896 21.178 21.456 21.3298 21.1292 21.457C20.8828 21.5531 20.5117 21.6668 19.8292 21.6978C19.0913 21.7318 18.8697 21.7385 17.0003 21.7385C15.1309 21.7385 14.9098 21.7318 14.1722 21.6978ZM14.1142 9.04239C13.369 9.07633 12.8598 9.19449 12.415 9.36753C11.9545 9.54622 11.5646 9.78596 11.175 10.1749C10.7854 10.5639 10.5462 10.9544 10.3675 11.4149C10.1945 11.8599 10.0763 12.3688 10.0424 13.114C10.0079 13.8604 10 14.099 10 16C10 17.901 10.0079 18.1396 10.0424 18.886C10.0763 19.6312 10.1945 20.1401 10.3675 20.5851C10.5462 21.0453 10.7854 21.4363 11.175 21.8251C11.5645 22.2139 11.9545 22.4533 12.415 22.6325C12.8606 22.8055 13.369 22.9237 14.1142 22.9576C14.861 22.9915 15.0992 23 17.0003 23C18.9013 23 19.14 22.9921 19.8864 22.9576C20.6316 22.9237 21.1405 22.8055 21.5855 22.6325C22.0458 22.4533 22.436 22.214 22.8256 21.8251C23.2152 21.4361 23.4538 21.0453 23.633 20.5851C23.8061 20.1401 23.9248 19.6312 23.9582 18.886C23.9921 18.139 24 17.901 24 16C24 14.099 23.9921 13.8604 23.9582 13.114C23.9242 12.3688 23.8061 11.8596 23.633 11.4149C23.4538 10.9547 23.2146 10.5645 22.8256 10.1749C22.4366 9.78534 22.0458 9.54622 21.5861 9.36753C21.1405 9.19449 20.6316 9.07577 19.8869 9.04239C19.1405 9.00846 18.9019 9 17.0008 9C15.0998 9 14.861 9.0079 14.1142 9.04239Z" fill="white"/>
<defs>
<filter id="filter0_d_21_83" x="0" y="0" width="34" height="34" filterUnits="userSpaceOnUse" color-interpolation-filters="sRGB">
<feFlood flood-opacity="0" result="BackgroundImageFix"/>
<feColorMatrix in="SourceAlpha" type="matrix" values="0 0 0 0 0 0 0 0 0 0 0 0 0 0 0 0 0 0 127 0" result="hardAlpha"/>
<feOffset dy="1"/>
<feGaussianBlur stdDeviation="1"/>
<feComposite in2="hardAlpha" operator="out"/>
<feColorMatrix type="matrix" values="0 0 0 0 0 0 0 0 0 0 0 0 0 0 0 0 0 0 0.4 0"/>
<feBlend mode="normal" in2="BackgroundImageFix" result="effect1_dropShadow_21_83"/>
<feBlend mode="normal" in="SourceGraphic" in2="effect1_dropShadow_21_83" result="shape"/>
</filter>
</defs>
</svg>
