<svg width="42" height="42" viewBox="0 0 42 42" fill="none" xmlns="http://www.w3.org/2000/svg">
<g filter="url(#filter0_d_68_3)">
<circle cx="21" cy="20" r="19" fill="#6FAB6A"/>
<circle cx="21" cy="20" r="15.96" fill="url(#paint0_linear_68_3)"/>
<circle cx="21" cy="20" r="15.2" fill="url(#paint1_radial_68_3)"/>
<path d="M14.4557 11C13.1096 11 12 12.1096 12 13.4557V16.7262C12 18.0721 13.1096 19.1816 14.4557 19.1816H17.7262C19.0724 19.1816 20.182 18.0721 20.182 16.7262V13.4554C20.1816 12.1096 19.0721 11 17.7262 11H14.4557ZM24.2738 11C22.9279 11 21.8184 12.1096 21.8184 13.4557V16.7262C21.8184 18.0724 22.9279 19.1816 24.2738 19.1816H27.5475C28.8936 19.1816 30 18.0721 30 16.7262V13.4554C30 12.1092 28.8936 11 27.5475 11H24.2738ZM14.4554 12.6374H17.7259C18.1875 12.6374 18.5443 12.9941 18.5443 13.4557V16.7262C18.5443 17.1878 18.1875 17.5446 17.7259 17.5446H14.4554C13.9938 17.5446 13.637 17.1878 13.637 16.7262V13.4557C13.637 12.9941 13.9938 12.6374 14.4554 12.6374ZM24.2738 12.6374H27.5475C28.0091 12.6374 28.3665 12.9941 28.3665 13.4557V16.7262C28.3665 17.1878 28.0091 17.5446 27.5475 17.5446H24.2738C23.8122 17.5446 23.4554 17.1878 23.4554 16.7262V13.4557C23.4554 12.9941 23.8122 12.6374 24.2738 12.6374ZM14.4554 20.8184C13.1096 20.8184 12 21.9279 12 23.2738V26.5475C12 27.8936 13.1096 29 14.4554 29H17.7259C19.0721 29 20.1813 27.8936 20.1813 26.5475V23.2738C20.1813 21.9276 19.0718 20.8184 17.7259 20.8184H14.4554ZM24.2738 20.8184C22.9276 20.8184 21.8184 21.9279 21.8184 23.2738V26.5475C21.8184 27.8936 22.9279 29 24.2738 29H27.5475C28.8936 29 30 27.8936 30 26.5475V23.2738C30 21.9276 28.8936 20.8184 27.5475 20.8184H24.2738ZM14.4554 22.4557H17.7259C18.1875 22.4557 18.5443 22.8125 18.5443 23.2741V26.5478C18.5443 27.0094 18.1875 27.3668 17.7259 27.3668H14.4554C13.9938 27.3668 13.637 27.0094 13.637 26.5478V23.2741C13.637 22.8125 13.9938 22.4557 14.4554 22.4557ZM24.2738 22.4557H27.5475C28.0091 22.4557 28.3665 22.8125 28.3665 23.2741V26.5478C28.3665 27.0094 28.0091 27.3668 27.5475 27.3668H24.2738C23.8122 27.3668 23.4554 27.0094 23.4554 26.5478V23.2738C23.4554 22.8122 23.8122 22.4554 24.2738 22.4554V22.4557Z" fill="white"/>
</g>
<defs>
<filter id="filter0_d_68_3" x="0" y="0" width="42" height="42" filterUnits="userSpaceOnUse" color-interpolation-filters="sRGB">
<feFlood flood-opacity="0" result="BackgroundImageFix"/>
<feColorMatrix in="SourceAlpha" type="matrix" values="0 0 0 0 0 0 0 0 0 0 0 0 0 0 0 0 0 0 127 0" result="hardAlpha"/>
<feOffset dy="1"/>
<feGaussianBlur stdDeviation="1"/>
<feComposite in2="hardAlpha" operator="out"/>
<feColorMatrix type="matrix" values="0 0 0 0 0 0 0 0 0 0 0 0 0 0 0 0 0 0 0.4 0"/>
<feBlend mode="normal" in2="BackgroundImageFix" result="effect1_dropShadow_68_3"/>
<feBlend mode="normal" in="SourceGraphic" in2="effect1_dropShadow_68_3" result="shape"/>
</filter>
<linearGradient id="paint0_linear_68_3" x1="21" y1="4.03998" x2="21" y2="35.96" gradientUnits="userSpaceOnUse">
<stop stop-color="#F3FEF2"/>
<stop offset="1" stop-color="#A6DC34"/>
</linearGradient>
<radialGradient id="paint1_radial_68_3" cx="0" cy="0" r="1" gradientUnits="userSpaceOnUse" gradientTransform="translate(21 10.88) rotate(90) scale(19.76)">
<stop stop-color="#9FCB58" stop-opacity="0.46"/>
<stop offset="1" stop-color="#3DB833"/>
</radialGradient>
</defs>
</svg>
