<svg width="64" height="64" viewBox="0 0 64 64" fill="none" xmlns="http://www.w3.org/2000/svg">
<g clip-path="url(#clip0_282_2818)">
<path d="M28.7509 4.46436C28.4399 4.46908 28.143 4.59669 27.9268 4.82172C27.7103 5.04566 27.5924 5.34689 27.6006 5.65835C27.3392 5.11874 26.7154 4.85852 26.1479 5.05254C20.5481 6.5478 15.392 9.17368 11.4265 13.4802C7.33965 17.9169 5.69589 22.9067 4.75786 28.7227C3.76479 34.8062 5.13684 39.8932 8.26398 45.1919C11.1449 50.0545 14.6176 53.5564 19.8342 55.8417C22.0746 56.9044 24.4045 57.7658 26.7977 58.4126C29.1024 58.9498 31.5737 58.8641 33.9233 58.7358C39.9206 58.4156 44.3954 55.4607 48.8213 51.6254C52.8963 48.0957 56.6207 43.6538 58.142 38.3899C59.6634 33.126 59.0448 27.3113 57.0591 22.1791C52.566 10.4931 41.0946 3.57739 28.7529 4.46287L28.7507 4.46326L28.7509 4.46436ZM55.984 34.1968C55.4615 39.2969 52.6758 43.7632 49.1135 47.3357C45.7315 50.728 41.5676 54.3481 36.7967 55.4174C32.6723 56.3181 28.3755 55.9944 24.4324 54.4881C20.1397 52.8974 16.0853 51.0912 13.2168 47.373C10.2461 43.5251 7.13415 38.2293 7.22718 33.2104C7.31695 27.6295 8.69249 21.7138 12.0711 17.2207C15.6897 12.4079 20.9388 9.44909 26.6716 7.89505C27.3251 7.72745 27.7849 7.1392 27.7897 6.46392C28.052 7.03388 28.6393 7.38082 29.2652 7.33678C34.0028 6.96596 38.7474 7.96873 42.9302 10.2219C47.113 12.4751 50.5603 15.8854 52.8579 20.0445C55.2142 24.323 56.4973 29.3231 55.9935 34.1929L55.9836 34.1946L55.984 34.1968Z" fill="#F8F8F8"/>
<path d="M42.2812 37.8152C37.6947 43.4584 29.6083 46.0351 23.6114 40.9384C22.1768 39.7125 20.5207 42.1232 21.9433 43.332C29.2061 49.5073 39.183 46.2619 44.6801 39.4867C45.8672 38.0241 43.4645 36.3634 42.2812 37.8152Z" fill="#F8F8F8"/>
<path d="M35.9151 15.9306C35.6816 16.135 35.5206 16.4101 35.4574 16.7139C35.2243 16.8889 35.0557 17.1337 34.9746 17.4136C34.0076 20.4682 34.825 24.4049 36.6903 27.0167C38.2922 29.2611 41.408 29.633 42.9268 27.0932C44.4456 24.5535 43.9621 19.6082 42.7223 17.0134C41.4094 14.287 38.0151 14.0191 35.9153 15.9317L35.9151 15.9306ZM40.6162 20.8883C40.7699 21.9386 41.3115 24.4514 40.5269 25.397C39.2835 26.9048 38.3168 23.8149 38.0012 22.8829C37.4982 21.3957 37.2231 19.9378 37.696 18.4051C37.717 18.3267 37.7335 18.2481 37.743 18.1685L37.7869 18.1358C40.0323 16.1282 40.4233 19.5875 40.6126 20.8935L40.6162 20.8883Z" fill="#F8F8F8"/>
<path d="M26.3167 27.9403C26.4997 27.9528 26.6834 27.9313 26.8592 27.8784C27.9524 28.0785 29.1921 27.1001 28.4851 25.9126C27.3014 23.9348 25.3021 22.5839 23.0265 22.2222C20.2212 21.7349 17.9555 22.6933 15.5674 24.0734C13.9543 25.0044 15.2169 27.6448 16.8292 26.7095C18.7327 25.608 21.3433 24.588 23.4854 25.2333C21.13 25.6711 19.0744 27.0969 17.8378 29.149C16.8891 30.7566 19.2755 32.4405 20.2316 30.8169C21.5298 28.5979 23.8026 27.7614 26.3167 27.9403Z" fill="#F8F8F8"/>
</g>
<defs>
<clipPath id="clip0_282_2818">
<rect width="54.4998" height="54.4998" fill="white" transform="translate(0 9.58508) rotate(-10.1295)"/>
</clipPath>
</defs>
</svg>
