<svg width="42" height="42" viewBox="0 0 42 42" fill="none" xmlns="http://www.w3.org/2000/svg">
<g filter="url(#filter0_d_0_189)">
<circle cx="21" cy="20" r="19" fill="#6FAB6A"/>
<circle cx="21" cy="20" r="15.96" fill="url(#paint0_linear_0_189)"/>
<circle cx="21" cy="19.9998" r="15.2" fill="url(#paint1_radial_0_189)"/>
<path d="M16.3916 21.4605L18.3678 26.9303C18.3678 26.9303 18.6149 27.4421 18.8794 27.4421C19.144 27.4421 23.079 23.3484 23.079 23.3484L27.4549 14.8965L16.4621 20.0486L16.3916 21.4605Z" fill="#C8DAEA"/>
<path d="M19.0097 22.8633L18.6303 26.8951C18.6303 26.8951 18.4715 28.1304 19.7066 26.8951C20.9417 25.6597 22.1239 24.7071 22.1239 24.7071" fill="#A9C6D8"/>
<path d="M16.4255 21.6547L12.3604 20.3302C12.3604 20.3302 11.8746 20.1331 12.031 19.6862C12.0632 19.594 12.1282 19.5156 12.3225 19.3808C13.2232 18.753 28.9941 13.0845 28.9941 13.0845C28.9941 13.0845 29.4394 12.9345 29.702 13.0343C29.767 13.0544 29.8254 13.0914 29.8714 13.1415C29.9174 13.1916 29.9492 13.253 29.9636 13.3195C29.992 13.4369 30.0039 13.5577 29.9989 13.6783C29.9976 13.7827 29.985 13.8794 29.9754 14.0312C29.8794 15.5809 27.005 27.1474 27.005 27.1474C27.005 27.1474 26.833 27.8243 26.2168 27.8474C26.0654 27.8523 25.9145 27.8267 25.7732 27.772C25.6319 27.7174 25.5031 27.6348 25.3944 27.5293C24.1852 26.4892 20.006 23.6806 19.0826 23.0629C19.0617 23.0487 19.0442 23.0302 19.0311 23.0087C19.018 22.9871 19.0097 22.963 19.0068 22.938C18.9939 22.8729 19.0647 22.7922 19.0647 22.7922C19.0647 22.7922 26.3417 16.3238 26.5354 15.6448C26.5504 15.5922 26.4937 15.5662 26.4177 15.5893C25.9343 15.7671 17.5557 21.0583 16.631 21.6422C16.5644 21.6624 16.494 21.6666 16.4255 21.6547Z" fill="white"/>
</g>
<defs>
<filter id="filter0_d_0_189" x="0" y="0" width="42" height="42" filterUnits="userSpaceOnUse" color-interpolation-filters="sRGB">
<feFlood flood-opacity="0" result="BackgroundImageFix"/>
<feColorMatrix in="SourceAlpha" type="matrix" values="0 0 0 0 0 0 0 0 0 0 0 0 0 0 0 0 0 0 127 0" result="hardAlpha"/>
<feOffset dy="1"/>
<feGaussianBlur stdDeviation="1"/>
<feComposite in2="hardAlpha" operator="out"/>
<feColorMatrix type="matrix" values="0 0 0 0 0 0 0 0 0 0 0 0 0 0 0 0 0 0 0.4 0"/>
<feBlend mode="normal" in2="BackgroundImageFix" result="effect1_dropShadow_0_189"/>
<feBlend mode="normal" in="SourceGraphic" in2="effect1_dropShadow_0_189" result="shape"/>
</filter>
<linearGradient id="paint0_linear_0_189" x1="21" y1="4.04004" x2="21" y2="35.96" gradientUnits="userSpaceOnUse">
<stop stop-color="#F3FEF2"/>
<stop offset="1" stop-color="#A6DC34"/>
</linearGradient>
<radialGradient id="paint1_radial_0_189" cx="0" cy="0" r="1" gradientUnits="userSpaceOnUse" gradientTransform="translate(21 10.8798) rotate(90) scale(19.76)">
<stop stop-color="#9FCB58" stop-opacity="0.46"/>
<stop offset="1" stop-color="#3DB833"/>
</radialGradient>
</defs>
</svg>
