<svg width="56" height="56" viewBox="0 0 56 56" fill="none" xmlns="http://www.w3.org/2000/svg">
<g filter="url(#filter0_d_21_92)">
<circle cx="28" cy="27" r="25" fill="#FBE887"/>
</g>
<circle cx="28" cy="27" r="21" fill="url(#paint0_linear_21_92)"/>
<circle cx="28" cy="27" r="20" fill="url(#paint1_radial_21_92)"/>
<path d="M19.8555 28.2804L22.4904 35.5735C22.4904 35.5735 22.8198 36.2558 23.1726 36.2558C23.5253 36.2558 28.7721 30.7976 28.7721 30.7976L34.6066 19.5283L19.9495 26.3978L19.8555 28.2804Z" fill="#7D4108"/>
<path d="M23.3462 30.1514L22.8404 35.5271C22.8404 35.5271 22.6287 37.1743 24.2755 35.5271C25.9223 33.8799 27.4986 32.6097 27.4986 32.6097" fill="#522904"/>
<path d="M19.9007 28.5396L14.4806 26.7736C14.4806 26.7736 13.8328 26.5108 14.0414 25.9149C14.0843 25.792 14.1709 25.6874 14.43 25.5077C15.631 24.6706 36.6588 17.1127 36.6588 17.1127C36.6588 17.1127 37.2525 16.9126 37.6026 17.0457C37.6893 17.0725 37.7672 17.1218 37.8285 17.1887C37.8898 17.2555 37.9323 17.3374 37.9515 17.426C37.9893 17.5825 38.0052 17.7435 37.9985 17.9044C37.9969 18.0436 37.98 18.1726 37.9672 18.3749C37.8392 20.4413 34.0066 35.8633 34.0066 35.8633C34.0066 35.8633 33.7773 36.7657 32.9558 36.7966C32.7539 36.8031 32.5527 36.7689 32.3643 36.696C32.1759 36.6232 32.0041 36.5131 31.8592 36.3724C30.247 34.9856 24.6747 31.2408 23.4434 30.4172C23.4156 30.3983 23.3923 30.3736 23.3748 30.3449C23.3574 30.3162 23.3463 30.284 23.3424 30.2506C23.3252 30.1638 23.4195 30.0563 23.4195 30.0563C23.4195 30.0563 33.1223 21.4318 33.3805 20.5264C33.4005 20.4562 33.325 20.4216 33.2236 20.4524C32.5791 20.6894 21.4076 27.7443 20.1746 28.523C20.0859 28.5498 19.9921 28.5555 19.9007 28.5396Z" fill="#9A4C03"/>
<defs>
<filter id="filter0_d_21_92" x="0" y="0" width="56" height="56" filterUnits="userSpaceOnUse" color-interpolation-filters="sRGB">
<feFlood flood-opacity="0" result="BackgroundImageFix"/>
<feColorMatrix in="SourceAlpha" type="matrix" values="0 0 0 0 0 0 0 0 0 0 0 0 0 0 0 0 0 0 127 0" result="hardAlpha"/>
<feMorphology radius="1" operator="dilate" in="SourceAlpha" result="effect1_dropShadow_21_92"/>
<feOffset dy="1"/>
<feGaussianBlur stdDeviation="1"/>
<feComposite in2="hardAlpha" operator="out"/>
<feColorMatrix type="matrix" values="0 0 0 0 0 0 0 0 0 0 0 0 0 0 0 0 0 0 0.4 0"/>
<feBlend mode="normal" in2="BackgroundImageFix" result="effect1_dropShadow_21_92"/>
<feBlend mode="normal" in="SourceGraphic" in2="effect1_dropShadow_21_92" result="shape"/>
</filter>
<linearGradient id="paint0_linear_21_92" x1="28" y1="6" x2="28" y2="48" gradientUnits="userSpaceOnUse">
<stop stop-color="white"/>
<stop offset="1" stop-color="#FFBF1C"/>
</linearGradient>
<radialGradient id="paint1_radial_21_92" cx="0" cy="0" r="1" gradientUnits="userSpaceOnUse" gradientTransform="translate(28 15) rotate(90) scale(26)">
<stop stop-color="#F9F1CA" stop-opacity="0.46"/>
<stop offset="1" stop-color="#FFBF1C"/>
</radialGradient>
</defs>
</svg>
