<svg width="34" height="34" viewBox="0 0 34 34" fill="none" xmlns="http://www.w3.org/2000/svg">
<g filter="url(#filter0_d_21_84)">
<path d="M32 16C32 24.2843 25.2843 31 17 31C8.71573 31 2 24.2843 2 16C2 7.71573 8.71573 1 17 1C25.2843 1 32 7.71573 32 16Z" fill="#67B927"/>
</g>
<path fill-rule="evenodd" clip-rule="evenodd" d="M10.4975 11H8.63765C8.10628 11 8 11.2478 8 11.521C8 12.0089 8.63053 14.4288 10.9358 17.6294C12.4727 19.8152 14.6379 21 16.6083 21C17.7905 21 17.9367 20.7369 17.9367 20.2836V18.6316C17.9367 18.1052 18.0487 18.0002 18.423 18.0002C18.6989 18.0002 19.1718 18.1368 20.2752 19.1907C21.5362 20.4397 21.7441 21 22.4533 21H24.3131C24.8446 21 25.1102 20.7369 24.957 20.2175C24.7892 19.6999 24.1872 18.9489 23.3883 18.0588C22.9548 17.5514 22.3046 17.005 22.1075 16.7317C21.8317 16.3804 21.9105 16.2243 22.1075 15.9121C22.1075 15.9121 24.3735 12.7505 24.6099 11.6772C24.7281 11.2868 24.6099 11 24.0474 11H22.1876C21.7148 11 21.4967 11.2478 21.3785 11.521C21.3785 11.521 20.4327 13.8043 19.0929 15.2875C18.6594 15.7169 18.4624 15.8535 18.2259 15.8535C18.1078 15.8535 17.9366 15.7169 17.9366 15.3266V11.6772C17.9366 11.2088 17.7994 11 17.4053 11H14.4827C14.1872 11 14.0095 11.2174 14.0095 11.4234C14.0095 11.8674 14.6794 11.9698 14.7484 13.2188V15.9316C14.7484 16.5263 14.6399 16.6341 14.4035 16.6341C13.773 16.6341 12.2393 14.3406 11.3298 11.7161C11.1516 11.2061 10.9728 11 10.4975 11Z" fill="white"/>
<defs>
<filter id="filter0_d_21_84" x="0" y="0" width="34" height="34" filterUnits="userSpaceOnUse" color-interpolation-filters="sRGB">
<feFlood flood-opacity="0" result="BackgroundImageFix"/>
<feColorMatrix in="SourceAlpha" type="matrix" values="0 0 0 0 0 0 0 0 0 0 0 0 0 0 0 0 0 0 127 0" result="hardAlpha"/>
<feOffset dy="1"/>
<feGaussianBlur stdDeviation="1"/>
<feComposite in2="hardAlpha" operator="out"/>
<feColorMatrix type="matrix" values="0 0 0 0 0 0 0 0 0 0 0 0 0 0 0 0 0 0 0.4 0"/>
<feBlend mode="normal" in2="BackgroundImageFix" result="effect1_dropShadow_21_84"/>
<feBlend mode="normal" in="SourceGraphic" in2="effect1_dropShadow_21_84" result="shape"/>
</filter>
</defs>
</svg>
