<svg width="1512" height="148" viewBox="0 0 1512 148" fill="none" xmlns="http://www.w3.org/2000/svg">
<path d="M47.6488 20.8728L21.5917 12.572L-18.9949 139.669L7.06214 147.97L47.6488 20.8728Z" fill="#EE3A59"/>
<path d="M43.7709 33.0078L17.7138 24.707L15.878 30.4558L41.935 38.7566L43.7709 33.0078Z" fill="#EFCA58"/>
<path d="M13.5352 127.727L-12.5219 119.426L-16.3834 131.518L9.67365 139.819L13.5352 127.727Z" fill="#EFCA58"/>
<path d="M15.7465 120.747L-10.3106 112.447L-11.4681 116.071L14.5889 124.372L15.7465 120.747Z" fill="#EFCA58"/>
<path d="M33.3198 52.6726C31.683 57.7555 26.2367 60.5794 21.1178 58.9445C15.9989 57.3097 13.2014 51.87 14.8383 46.7573C16.4751 41.6744 21.9214 38.8505 27.0403 40.4854C32.1592 42.1203 34.9567 47.5599 33.3198 52.6726Z" fill="#EFCA58"/>
<g style="mix-blend-mode:multiply">
<path d="M47.6265 20.8832L34.6121 16.7373L-5.97456 143.834L7.03981 147.98L47.6265 20.8832Z" fill="#DEDEDE"/>
</g>
<path d="M76.4844 16.0237L49.5554 11.2473L26.201 142.597L53.13 147.374L76.4844 16.0237Z" fill="#E27B47"/>
<path d="M75.483 21.6544L48.554 16.8779L46.5505 28.1457L73.4796 32.9221L75.483 21.6544Z" fill="#334E5C"/>
<path d="M56.186 130.163L29.257 125.387L27.2535 136.655L54.1825 141.431L56.186 130.163Z" fill="#334E5C"/>
<path d="M60.684 35.8217L53.7979 34.6003L38.6707 119.679L45.5567 120.901L60.684 35.8217Z" fill="#EFCA58"/>
<path d="M66.038 36.7625L62.5803 36.1492L47.453 121.228L50.9107 121.841L66.038 36.7625Z" fill="#EFCA58"/>
<g style="mix-blend-mode:multiply">
<path d="M76.4807 16.0488L63.0016 13.658L39.6472 145.008L53.1263 147.399L76.4807 16.0488Z" fill="#DEDEDE"/>
</g>
<path d="M103.824 13.9707H76.4733V147.376H103.824V13.9707Z" fill="#46B29E"/>
<path d="M100.967 40.0098H79.0327V80.6734H100.967V40.0098Z" fill="#334E5C"/>
<path d="M100.967 122.615H79.0327V126.123H100.967V122.615Z" fill="#334E5C"/>
<path d="M100.967 17.9539H79.0327V21.4614H100.967V17.9539Z" fill="#334E5C"/>
<path d="M100.967 137.061H79.0327V140.569H100.967V137.061Z" fill="#334E5C"/>
<path d="M100.967 129.838H79.0327V133.346H100.967V129.838Z" fill="#334E5C"/>
<g style="mix-blend-mode:multiply">
<path d="M103.824 13.9707H89.9848V147.376H103.824V13.9707Z" fill="#DEDEDE"/>
</g>
<path d="M120.371 0H103.824V147.376H120.371V0Z" fill="#EFCA58"/>
<path d="M120.371 38.4343H103.824V108.942H120.371V38.4343Z" fill="#E27B47"/>
<g style="mix-blend-mode:multiply">
<path d="M120.371 0H112.097V147.376H120.371V0Z" fill="#DEDEDE"/>
</g>
<path d="M135.638 0H119.091V147.376H135.638V0Z" fill="#334E5C"/>
<path d="M135.638 6.36108H119.091V10.1659H135.638V6.36108Z" fill="#46B29E"/>
<path d="M135.638 136.913H119.091V140.717H135.638V136.913Z" fill="#46B29E"/>
<path d="M127.513 15.5759H127.216C125.013 15.5759 123.228 17.3592 123.228 19.5591V125.855C123.228 128.055 125.013 129.838 127.216 129.838H127.513C129.716 129.838 131.501 128.055 131.501 125.855V19.5591C131.501 17.3592 129.716 15.5759 127.513 15.5759Z" fill="#46B29E"/>
<g style="mix-blend-mode:multiply">
<path d="M135.638 0H127.365V147.376H135.638V0Z" fill="#DEDEDE"/>
</g>
<path d="M152.185 0H135.638V147.376H152.185V0Z" fill="#EE3A59"/>
<path d="M152.185 6.36108H135.638V10.1659H152.185V6.36108Z" fill="#EFCA58"/>
<path d="M152.185 136.913H135.638V140.717H152.185V136.913Z" fill="#EFCA58"/>
<path d="M152.185 15.5759H135.638V17.9539H152.185V15.5759Z" fill="#EFCA58"/>
<path d="M147.394 72.707C147.394 96.7544 145.816 116.254 143.882 116.254C141.947 116.254 140.37 96.7544 140.37 72.707C140.37 48.6596 141.947 29.1602 143.882 29.1602C145.816 29.1602 147.394 48.6596 147.394 72.707Z" fill="#EFCA58"/>
<g style="mix-blend-mode:multiply">
<path d="M152.185 0H143.912V147.376H152.185V0Z" fill="#DEDEDE"/>
</g>
<path d="M187.779 8.26343H152.155V147.376H187.779V8.26343Z" fill="#334E5C"/>
<path d="M187.779 126.093H152.155V141.966H187.779V126.093Z" fill="#E27B47"/>
<path d="M187.779 120.059H152.155V122.585H187.779V120.059Z" fill="#E27B47"/>
<path d="M187.779 13.9707H152.155V16.7351H187.779V13.9707Z" fill="#E27B47"/>
<path d="M180.369 117.205H159.864C157.364 117.205 155.34 115.184 155.34 112.687V25.0282C155.34 22.5313 157.364 20.51 159.864 20.51H180.369C182.869 20.51 184.893 22.5313 184.893 25.0282V112.687C184.893 115.184 182.869 117.205 180.369 117.205ZM159.864 22.3827C158.405 22.3827 157.245 23.5717 157.245 24.9985V112.657C157.245 114.114 158.435 115.273 159.864 115.273H180.369C181.827 115.273 182.988 114.084 182.988 112.657V25.0282C182.988 23.5717 181.797 22.4124 180.369 22.4124H159.864V22.3827Z" fill="#E27B47"/>
<g style="mix-blend-mode:multiply">
<path d="M187.779 8.26343H170.131V147.376H187.779V8.26343Z" fill="#DEDEDE"/>
</g>
<path d="M1513.93 147.965L1539.98 139.664L1499.4 12.5671L1473.34 20.8679L1513.93 147.965Z" fill="#EE3A59"/>
<path d="M1479.07 38.7097L1505.12 30.4089L1503.29 24.6601L1477.23 32.9609L1479.07 38.7097Z" fill="#EFCA58"/>
<path d="M1511.33 139.797L1537.39 131.497L1533.53 119.404L1507.47 127.705L1511.33 139.797Z" fill="#EFCA58"/>
<path d="M1506.4 124.364L1532.46 116.063L1531.3 112.439L1505.24 120.739L1506.4 124.364Z" fill="#EFCA58"/>
<path d="M1487.68 52.6726C1489.32 57.7555 1494.76 60.5794 1499.88 58.9445C1505 57.3097 1507.8 51.87 1506.16 46.7573C1504.52 41.6744 1499.08 38.8505 1493.96 40.4854C1488.84 42.1203 1486.04 47.5599 1487.68 52.6726Z" fill="#EFCA58"/>
<g style="mix-blend-mode:multiply">
<path d="M1513.94 147.952L1526.95 143.806L1486.37 16.7092L1473.35 20.855L1513.94 147.952Z" fill="#DEDEDE"/>
</g>
<path d="M1467.87 147.436L1494.8 142.659L1471.45 11.3095L1444.52 16.0859L1467.87 147.436Z" fill="#E27B47"/>
<path d="M1447.53 32.9827L1474.46 28.2063L1472.45 16.9385L1445.53 21.715L1447.53 32.9827Z" fill="#334E5C"/>
<path d="M1466.8 141.524L1493.73 136.748L1491.73 125.48L1464.8 130.257L1466.8 141.524Z" fill="#334E5C"/>
<path d="M1475.45 120.927L1482.34 119.706L1467.21 34.6266L1460.32 35.848L1475.45 120.927Z" fill="#EFCA58"/>
<path d="M1470.1 121.88L1473.55 121.267L1458.43 36.1879L1454.97 36.8012L1470.1 121.88Z" fill="#EFCA58"/>
<g style="mix-blend-mode:multiply">
<path d="M1467.87 147.433L1481.35 145.042L1457.99 13.6923L1444.51 16.0831L1467.87 147.433Z" fill="#DEDEDE"/>
</g>
<path d="M1417.15 147.376H1444.5V13.9706H1417.15V147.376Z" fill="#46B29E"/>
<path d="M1420.03 80.7029H1441.97V40.0393H1420.03V80.7029Z" fill="#334E5C"/>
<path d="M1420.03 126.093H1441.97V122.585H1420.03V126.093Z" fill="#334E5C"/>
<path d="M1420.03 21.4316L1441.97 21.4316V17.9241L1420.03 17.9241V21.4316Z" fill="#334E5C"/>
<path d="M1420.03 140.569H1441.97V137.061H1420.03V140.569Z" fill="#334E5C"/>
<path d="M1420.03 133.316H1441.97V129.808H1420.03V133.316Z" fill="#334E5C"/>
<g style="mix-blend-mode:multiply">
<path d="M1417.15 147.376H1430.99V13.9706H1417.15V147.376Z" fill="#DEDEDE"/>
</g>
<path d="M1400.6 147.376H1417.15V-4.57764e-05H1400.6V147.376Z" fill="#EFCA58"/>
<path d="M1400.6 108.942H1417.15V38.4343H1400.6V108.942Z" fill="#E27B47"/>
<g style="mix-blend-mode:multiply">
<path d="M1400.63 147.376H1408.9V-4.57764e-05H1400.63V147.376Z" fill="#DEDEDE"/>
</g>
<path d="M1385.36 147.376H1401.91V-4.57764e-05H1385.36V147.376Z" fill="#334E5C"/>
<path d="M1385.36 10.166L1401.91 10.166V6.36124L1385.36 6.36124V10.166Z" fill="#46B29E"/>
<path d="M1385.36 140.717H1401.91V136.913H1385.36V140.717Z" fill="#46B29E"/>
<path d="M1393.49 129.838H1393.78C1395.99 129.838 1397.77 128.055 1397.77 125.855V19.559C1397.77 17.3591 1395.99 15.5758 1393.78 15.5758H1393.49C1391.28 15.5758 1389.5 17.3591 1389.5 19.559V125.855C1389.5 128.055 1391.28 129.838 1393.49 129.838Z" fill="#46B29E"/>
<g style="mix-blend-mode:multiply">
<path d="M1385.36 147.376H1393.64V-4.57764e-05H1385.36V147.376Z" fill="#DEDEDE"/>
</g>
<path d="M1368.81 147.376H1385.36V-4.57764e-05H1368.81V147.376Z" fill="#EE3A59"/>
<path d="M1368.81 10.166L1385.36 10.166V6.36124L1368.81 6.36124V10.166Z" fill="#EFCA58"/>
<path d="M1368.81 140.717H1385.36V136.913H1368.81V140.717Z" fill="#EFCA58"/>
<path d="M1368.81 17.9241L1385.36 17.9241V15.5461L1368.81 15.5461V17.9241Z" fill="#EFCA58"/>
<path d="M1373.61 72.707C1373.61 96.7544 1375.18 116.254 1377.12 116.254C1379.05 116.254 1380.63 96.7544 1380.63 72.707C1380.63 48.6596 1379.05 29.1602 1377.12 29.1602C1375.18 29.1602 1373.61 48.6596 1373.61 72.707Z" fill="#EFCA58"/>
<g style="mix-blend-mode:multiply">
<path d="M1368.81 147.376H1377.09V-4.57764e-05H1368.81V147.376Z" fill="#DEDEDE"/>
</g>
<path d="M1333.22 147.376H1368.84V8.26346H1333.22V147.376Z" fill="#334E5C"/>
<path d="M1333.22 141.996H1368.84V126.123H1333.22V141.996Z" fill="#E27B47"/>
<path d="M1333.22 122.615H1368.84V120.088H1333.22V122.615Z" fill="#E27B47"/>
<path d="M1333.22 16.7646L1368.84 16.7646V14.0002L1333.22 14.0002V16.7646Z" fill="#E27B47"/>
<path d="M1340.6 117.205H1361.11C1363.61 117.205 1365.63 115.184 1365.63 112.687V25.0282C1365.63 22.5313 1363.61 20.51 1361.11 20.51H1340.6C1338.1 20.51 1336.08 22.5313 1336.08 25.0282V112.687C1336.08 115.184 1338.1 117.205 1340.6 117.205ZM1361.11 22.3827C1362.56 22.3827 1363.73 23.5717 1363.73 24.9985V112.657C1363.73 114.114 1362.54 115.273 1361.11 115.273H1340.6C1339.14 115.273 1337.98 114.084 1337.98 112.657V25.0282C1337.98 23.5717 1339.17 22.4124 1340.6 22.4124H1361.11V22.3827Z" fill="#E27B47"/>
<g style="mix-blend-mode:multiply">
<path d="M1333.22 147.376H1350.87V8.26346H1333.22V147.376Z" fill="#DEDEDE"/>
</g>
<path d="M595.743 13.9707H568.393V147.376H595.743V13.9707Z" fill="#46B29E"/>
<path d="M592.886 40.0098H570.952V80.6734H592.886V40.0098Z" fill="#334E5C"/>
<path d="M592.886 122.615H570.952V126.123H592.886V122.615Z" fill="#334E5C"/>
<path d="M592.886 17.9539H570.952V21.4614H592.886V17.9539Z" fill="#334E5C"/>
<path d="M592.886 137.061H570.952V140.569H592.886V137.061Z" fill="#334E5C"/>
<path d="M592.886 129.838H570.952V133.346H592.886V129.838Z" fill="#334E5C"/>
<g style="mix-blend-mode:multiply">
<path d="M595.773 13.9707H581.934V147.376H595.773V13.9707Z" fill="#DEDEDE"/>
</g>
<path d="M612.29 0H595.743V147.376H612.29V0Z" fill="#EFCA58"/>
<path d="M612.29 38.4343H595.743V108.942H612.29V38.4343Z" fill="#E27B47"/>
<g style="mix-blend-mode:multiply">
<path d="M612.29 0H604.017V147.376H612.29V0Z" fill="#DEDEDE"/>
</g>
<path d="M627.558 0H611.01V147.376H627.558V0Z" fill="#334E5C"/>
<path d="M627.558 6.36108H611.01V10.1659H627.558V6.36108Z" fill="#46B29E"/>
<path d="M627.558 136.913H611.01V140.717H627.558V136.913Z" fill="#46B29E"/>
<path d="M619.433 15.5759H619.135C616.933 15.5759 615.147 17.3592 615.147 19.5591V125.855C615.147 128.055 616.933 129.838 619.135 129.838H619.433C621.635 129.838 623.421 128.055 623.421 125.855V19.5591C623.421 17.3592 621.635 15.5759 619.433 15.5759Z" fill="#46B29E"/>
<g style="mix-blend-mode:multiply">
<path d="M627.558 0H619.284V147.376H627.558V0Z" fill="#DEDEDE"/>
</g>
<path d="M568.422 8.26343H532.799V147.376H568.422V8.26343Z" fill="#334E5C"/>
<path d="M568.423 126.093H532.799V141.966H568.423V126.093Z" fill="#E27B47"/>
<path d="M568.423 120.059H532.799V122.585H568.423V120.059Z" fill="#E27B47"/>
<path d="M568.423 13.9707H532.799V16.7351H568.423V13.9707Z" fill="#E27B47"/>
<path d="M561.012 117.205H540.507C538.007 117.205 535.983 115.184 535.983 112.687V25.0282C535.983 22.5313 538.007 20.51 540.507 20.51H561.012C563.512 20.51 565.536 22.5313 565.536 25.0282V112.687C565.536 115.184 563.512 117.205 561.012 117.205ZM540.507 22.3827C539.048 22.3827 537.888 23.5717 537.888 24.9985V112.657C537.888 114.114 539.078 115.273 540.507 115.273H561.012C562.47 115.273 563.631 114.084 563.631 112.657V25.0282C563.631 23.5717 562.441 22.4124 561.012 22.4124H540.507V22.3827Z" fill="#E27B47"/>
<g style="mix-blend-mode:multiply">
<path d="M568.393 8.26343H550.744V147.376H568.393V8.26343Z" fill="#DEDEDE"/>
</g>
<path d="M348.161 0H331.614V147.376H348.161V0Z" fill="#EFCA58"/>
<path d="M348.161 38.4343H331.614V108.942H348.161V38.4343Z" fill="#E27B47"/>
<g style="mix-blend-mode:multiply">
<path d="M348.161 0H339.888V147.376H348.161V0Z" fill="#DEDEDE"/>
</g>
<path d="M363.429 0H346.882V147.376H363.429V0Z" fill="#334E5C"/>
<path d="M363.429 6.36108H346.882V10.1659H363.429V6.36108Z" fill="#46B29E"/>
<path d="M363.429 136.913H346.882V140.717H363.429V136.913Z" fill="#46B29E"/>
<path d="M355.304 15.5759H355.006C352.804 15.5759 351.018 17.3592 351.018 19.5591V125.855C351.018 128.055 352.804 129.838 355.006 129.838H355.304C357.507 129.838 359.292 128.055 359.292 125.855V19.5591C359.292 17.3592 357.507 15.5759 355.304 15.5759Z" fill="#46B29E"/>
<g style="mix-blend-mode:multiply">
<path d="M363.429 0H355.155V147.376H363.429V0Z" fill="#DEDEDE"/>
</g>
<path d="M379.976 0H363.429V147.376H379.976V0Z" fill="#EE3A59"/>
<path d="M379.976 6.36108H363.429V10.1659H379.976V6.36108Z" fill="#EFCA58"/>
<path d="M379.976 136.913H363.429V140.717H379.976V136.913Z" fill="#EFCA58"/>
<path d="M379.976 15.5759H363.429V17.9539H379.976V15.5759Z" fill="#EFCA58"/>
<path d="M375.184 72.707C375.184 96.7544 373.607 116.254 371.673 116.254C369.738 116.254 368.161 96.7544 368.161 72.707C368.161 48.6596 369.738 29.1602 371.673 29.1602C373.607 29.1602 375.184 48.6596 375.184 72.707Z" fill="#EFCA58"/>
<g style="mix-blend-mode:multiply">
<path d="M379.946 0H371.673V147.376H379.946V0Z" fill="#DEDEDE"/>
</g>
<path d="M415.57 8.26343H379.946V147.376H415.57V8.26343Z" fill="#334E5C"/>
<path d="M415.57 126.093H379.946V141.966H415.57V126.093Z" fill="#E27B47"/>
<path d="M415.57 120.059H379.946V122.585H415.57V120.059Z" fill="#E27B47"/>
<path d="M415.57 13.9707H379.946V16.7351H415.57V13.9707Z" fill="#E27B47"/>
<path d="M408.16 117.205H387.654C385.154 117.205 383.131 115.184 383.131 112.687V25.0282C383.131 22.5313 385.154 20.51 387.654 20.51H408.16C410.659 20.51 412.683 22.5313 412.683 25.0282V112.687C412.683 115.184 410.659 117.205 408.16 117.205ZM387.654 22.3827C386.196 22.3827 385.035 23.5717 385.035 24.9985V112.657C385.035 114.114 386.226 115.273 387.654 115.273H408.16C409.618 115.273 410.779 114.084 410.779 112.657V25.0282C410.779 23.5717 409.588 22.4124 408.16 22.4124H387.654V22.3827Z" fill="#E27B47"/>
<g style="mix-blend-mode:multiply">
<path d="M415.54 8.26343H397.892V147.376H415.54V8.26343Z" fill="#DEDEDE"/>
</g>
<path d="M643.748 34.1538H627.201V147.227H643.748V34.1538Z" fill="#EE3A59"/>
<path d="M643.748 41.1392H627.2V43.9927H643.748V41.1392Z" fill="#EFCA58"/>
<path d="M643.748 137.448H627.2V143.125H643.748V137.448Z" fill="#334E5C"/>
<path d="M643.748 132.424H627.2V134.059H643.748V132.424Z" fill="#334E5C"/>
<g style="mix-blend-mode:multiply">
<path d="M643.748 34.1538H635.474V147.227H643.748V34.1538Z" fill="#DEDEDE"/>
</g>
<path d="M660.739 33.6392L644.259 35.1284L654.46 147.742L670.94 146.252L660.739 33.6392Z" fill="#46B29E"/>
<path d="M661.597 43.4534L645.117 44.9426L646.608 61.4024L663.088 59.9131L661.597 43.4534Z" fill="#334E5C"/>
<path d="M663.108 59.9009L646.628 61.3901L647.366 69.5312L663.845 68.0419L663.108 59.9009Z" fill="#EFCA58"/>
<g style="mix-blend-mode:multiply">
<path d="M660.707 33.6433L652.467 34.3879L662.668 147.001L670.908 146.257L660.707 33.6433Z" fill="#DEDEDE"/>
</g>
<path d="M313.133 147.465H329.68V0.0890656H313.133V147.465Z" fill="#334E5C"/>
<path d="M313.133 109.031H329.68V38.5234H313.133V109.031Z" fill="#EFCA58"/>
<g style="mix-blend-mode:multiply">
<path d="M313.133 147.465H321.406V0.0890656H313.133V147.465Z" fill="#DEDEDE"/>
</g>
<path d="M277.539 147.465H313.162V8.35281H277.539V147.465Z" fill="#EE3A59"/>
<path d="M279.771 134.297H310.93V21.521H279.771V134.297ZM309.026 132.662H281.675V23.1559H309.026V132.662Z" fill="#EFCA58"/>
<path d="M279.771 16.854L310.93 16.854V12.8114L279.771 12.8114V16.854Z" fill="#EFCA58"/>
<path d="M279.771 144.284H310.93V137.15H279.771V144.284Z" fill="#EFCA58"/>
<g style="mix-blend-mode:multiply">
<path d="M277.568 147.465H295.365V8.35281H277.568V147.465Z" fill="#DEDEDE"/>
</g>
<path d="M255.426 147.465H277.687V14.0597H255.426L255.426 147.465Z" fill="#EFCA58"/>
<path d="M255.426 29.2195L277.687 29.2195V20.5696L255.426 20.5696V29.2195Z" fill="#46B29E"/>
<path d="M255.426 147.465H277.687V109.031H255.426V147.465Z" fill="#46B29E"/>
<path d="M266.587 97.5866C270.104 97.5866 272.955 83.6528 272.955 66.4647C272.955 49.2765 270.104 35.3428 266.587 35.3428C263.069 35.3428 260.218 49.2765 260.218 66.4647C260.218 83.6528 263.069 97.5866 266.587 97.5866Z" fill="#46B29E"/>
<path d="M255.426 120.148H277.687V115.392H255.426V120.148Z" fill="#EFCA58"/>
<g style="mix-blend-mode:multiply">
<path d="M255.426 147.465H266.557V14.0597H255.426L255.426 147.465Z" fill="#DEDEDE"/>
</g>
<path d="M211.142 147.465H233.403L233.403 14.0597H211.142L211.142 147.465Z" fill="#46B29E"/>
<path d="M211.142 120.148H233.403V50.8888H211.142V120.148Z" fill="#334E5C"/>
<path d="M211.142 134.267H233.403V128.233H211.142V134.267Z" fill="#334E5C"/>
<path d="M211.142 24.9094L233.403 24.9094V20.5696L211.142 20.5696V24.9094Z" fill="#334E5C"/>
<g style="mix-blend-mode:multiply">
<path d="M211.142 147.465H222.272L222.272 14.0597H211.142L211.142 147.465Z" fill="#DEDEDE"/>
</g>
<path d="M233.165 147.465H255.426L255.426 14.0597H233.165L233.165 147.465Z" fill="#E27B47"/>
<path d="M235.397 145.235H253.194V16.2891H235.397V145.235ZM251.289 143.333H237.302V18.1915H251.289V143.333Z" fill="#334E5C"/>
<path d="M239.534 122.704H249.087V38.8503H239.534V122.704Z" fill="#334E5C"/>
<path d="M244.325 32.7566C246.281 32.7566 247.867 31.173 247.867 29.2194C247.867 27.2658 246.281 25.6821 244.325 25.6821C242.369 25.6821 240.784 27.2658 240.784 29.2194C240.784 31.173 242.369 32.7566 244.325 32.7566Z" fill="#334E5C"/>
<path d="M240.784 134.119C240.784 136.08 242.361 137.656 244.325 137.656C246.29 137.656 247.867 136.08 247.867 134.119C247.867 132.157 246.29 130.581 244.325 130.581C242.361 130.581 240.784 132.157 240.784 134.119Z" fill="#334E5C"/>
<g style="mix-blend-mode:multiply">
<path d="M233.165 147.465H244.296L244.296 14.0597H233.165L233.165 147.465Z" fill="#DEDEDE"/>
</g>
<path d="M808.445 0H791.898V147.376H808.445V0Z" fill="#EFCA58"/>
<path d="M808.445 38.4343H791.898V108.942H808.445V38.4343Z" fill="#E27B47"/>
<g style="mix-blend-mode:multiply">
<path d="M808.445 0H800.171V147.376H808.445V0Z" fill="#DEDEDE"/>
</g>
<path d="M823.712 0H807.165V147.376H823.712V0Z" fill="#334E5C"/>
<path d="M823.712 6.36108H807.165V10.1659H823.712V6.36108Z" fill="#46B29E"/>
<path d="M823.712 136.913H807.165V140.717H823.712V136.913Z" fill="#46B29E"/>
<path d="M815.588 15.5759H815.29C813.087 15.5759 811.302 17.3592 811.302 19.5591V125.855C811.302 128.055 813.087 129.838 815.29 129.838H815.588C817.79 129.838 819.575 128.055 819.575 125.855V19.5591C819.575 17.3592 817.79 15.5759 815.588 15.5759Z" fill="#46B29E"/>
<g style="mix-blend-mode:multiply">
<path d="M823.683 0H815.409V147.376H823.683V0Z" fill="#DEDEDE"/>
</g>
<path d="M773.446 147.465H789.993V0.0890656H773.446V147.465Z" fill="#334E5C"/>
<path d="M773.446 109.031H789.993V38.5234H773.446V109.031Z" fill="#EFCA58"/>
<g style="mix-blend-mode:multiply">
<path d="M773.446 147.465H781.72V0.0890656H773.446V147.465Z" fill="#DEDEDE"/>
</g>
<path d="M737.822 147.465H773.446V8.35281H737.822V147.465Z" fill="#EE3A59"/>
<path d="M740.054 134.297H771.214V21.521H740.054V134.297ZM769.309 132.662H741.959V23.1559H769.309V132.662Z" fill="#EFCA58"/>
<path d="M740.054 16.854L771.214 16.854V12.8114L740.054 12.8114V16.854Z" fill="#EFCA58"/>
<path d="M740.054 144.284H771.214V137.15H740.054V144.284Z" fill="#EFCA58"/>
<g style="mix-blend-mode:multiply">
<path d="M737.852 147.465H755.649V8.35281H737.852V147.465Z" fill="#DEDEDE"/>
</g>
<path d="M715.739 147.465H738.001V14.0597H715.739V147.465Z" fill="#EFCA58"/>
<path d="M715.739 29.2195L738.001 29.2195V20.5696L715.739 20.5696V29.2195Z" fill="#46B29E"/>
<path d="M715.739 147.465H738.001V109.031H715.739V147.465Z" fill="#46B29E"/>
<path d="M726.84 97.5866C730.358 97.5866 733.209 83.6528 733.209 66.4647C733.209 49.2765 730.358 35.3428 726.84 35.3428C723.323 35.3428 720.471 49.2765 720.471 66.4647C720.471 83.6528 723.323 97.5866 726.84 97.5866Z" fill="#46B29E"/>
<path d="M715.739 120.148H738.001V115.392H715.739V120.148Z" fill="#EFCA58"/>
<g style="mix-blend-mode:multiply">
<path d="M715.739 147.465H726.87V14.0597H715.739V147.465Z" fill="#DEDEDE"/>
</g>
<path d="M671.425 147.465H693.687V14.0597H671.425V147.465Z" fill="#46B29E"/>
<path d="M671.425 120.148H693.687V50.8888H671.425V120.148Z" fill="#334E5C"/>
<path d="M671.425 134.267H693.687V128.233H671.425V134.267Z" fill="#334E5C"/>
<path d="M671.425 24.9094L693.687 24.9094V20.5696L671.425 20.5696V24.9094Z" fill="#334E5C"/>
<g style="mix-blend-mode:multiply">
<path d="M671.425 147.465H682.556V14.0597H671.425V147.465Z" fill="#DEDEDE"/>
</g>
<path d="M693.478 147.465H715.739V14.0597H693.478V147.465Z" fill="#E27B47"/>
<path d="M695.68 145.235H713.478V16.2891H695.68V145.235ZM711.573 143.333H697.585V18.1915H711.573V143.333Z" fill="#334E5C"/>
<path d="M699.817 122.704H709.371V38.8503H699.817V122.704Z" fill="#334E5C"/>
<path d="M704.579 32.7566C706.535 32.7566 708.121 31.173 708.121 29.2194C708.121 27.2658 706.535 25.6821 704.579 25.6821C702.623 25.6821 701.037 27.2658 701.037 29.2194C701.037 31.173 702.623 32.7566 704.579 32.7566Z" fill="#334E5C"/>
<path d="M701.067 134.119C701.067 136.08 702.645 137.656 704.609 137.656C706.573 137.656 708.15 136.08 708.15 134.119C708.15 132.157 706.573 130.581 704.609 130.581C702.645 130.581 701.067 132.157 701.067 134.119Z" fill="#334E5C"/>
<g style="mix-blend-mode:multiply">
<path d="M693.478 147.465H704.609V14.0597H693.478V147.465Z" fill="#DEDEDE"/>
</g>
<path d="M517.531 147.465H534.078V0.0890656H517.531V147.465Z" fill="#334E5C"/>
<path d="M517.531 109.031H534.078V38.5234H517.531V109.031Z" fill="#EFCA58"/>
<g style="mix-blend-mode:multiply">
<path d="M517.531 147.465H525.805V0.0890656H517.531V147.465Z" fill="#DEDEDE"/>
</g>
<path d="M481.937 147.465H517.561V8.35281H481.937V147.465Z" fill="#EE3A59"/>
<path d="M484.169 134.297H515.329V21.521H484.169V134.297ZM513.424 132.662H486.074V23.1559H513.424V132.662Z" fill="#EFCA58"/>
<path d="M484.169 16.854L515.329 16.854V12.8114L484.169 12.8114V16.854Z" fill="#EFCA58"/>
<path d="M484.169 144.284H515.329V137.15H484.169V144.284Z" fill="#EFCA58"/>
<g style="mix-blend-mode:multiply">
<path d="M481.967 147.465H499.764V8.35281H481.967V147.465Z" fill="#DEDEDE"/>
</g>
<path d="M459.825 147.465H482.086V14.0597H459.825V147.465Z" fill="#EFCA58"/>
<path d="M459.825 29.2195L482.086 29.2195V20.5696L459.825 20.5696V29.2195Z" fill="#46B29E"/>
<path d="M459.825 147.465H482.086V109.031H459.825V147.465Z" fill="#46B29E"/>
<path d="M470.985 97.5866C474.502 97.5866 477.354 83.6528 477.354 66.4647C477.354 49.2765 474.502 35.3428 470.985 35.3428C467.468 35.3428 464.616 49.2765 464.616 66.4647C464.616 83.6528 467.468 97.5866 470.985 97.5866Z" fill="#46B29E"/>
<path d="M459.825 120.148H482.086V115.392H459.825V120.148Z" fill="#EFCA58"/>
<g style="mix-blend-mode:multiply">
<path d="M459.825 147.465H470.955V14.0597H459.825V147.465Z" fill="#DEDEDE"/>
</g>
<path d="M415.54 147.465H437.802V14.0597H415.54V147.465Z" fill="#46B29E"/>
<path d="M415.54 120.148H437.802V50.8888H415.54V120.148Z" fill="#334E5C"/>
<path d="M415.54 134.267H437.802V128.233H415.54V134.267Z" fill="#334E5C"/>
<path d="M415.54 24.9094L437.802 24.9094V20.5696L415.54 20.5696V24.9094Z" fill="#334E5C"/>
<g style="mix-blend-mode:multiply">
<path d="M415.54 147.465H426.671V14.0597H415.54V147.465Z" fill="#DEDEDE"/>
</g>
<path d="M437.563 147.465H459.825V14.0597H437.563V147.465Z" fill="#E27B47"/>
<path d="M439.795 145.235H457.593V16.2891H439.795V145.235ZM455.688 143.333H441.7V18.1915H455.688V143.333Z" fill="#334E5C"/>
<path d="M443.932 122.704H453.486V38.8503H443.932V122.704Z" fill="#334E5C"/>
<path d="M448.724 32.7566C450.68 32.7566 452.265 31.173 452.265 29.2194C452.265 27.2658 450.68 25.6821 448.724 25.6821C446.768 25.6821 445.182 27.2658 445.182 29.2194C445.182 31.173 446.768 32.7566 448.724 32.7566Z" fill="#334E5C"/>
<path d="M445.182 134.119C445.182 136.08 446.76 137.656 448.724 137.656C450.688 137.656 452.265 136.08 452.265 134.119C452.265 132.157 450.688 130.581 448.724 130.581C446.76 130.581 445.182 132.157 445.182 134.119Z" fill="#334E5C"/>
<g style="mix-blend-mode:multiply">
<path d="M437.563 147.465H448.694V14.0597H437.563V147.465Z" fill="#DEDEDE"/>
</g>
<path d="M1105.01 13.9707H1077.66V147.376H1105.01V13.9707Z" fill="#46B29E"/>
<path d="M1102.16 40.0098H1080.22V80.6734H1102.16V40.0098Z" fill="#334E5C"/>
<path d="M1102.16 122.615H1080.22V126.123H1102.16V122.615Z" fill="#334E5C"/>
<path d="M1102.16 17.9539H1080.22V21.4614H1102.16V17.9539Z" fill="#334E5C"/>
<path d="M1102.16 137.061H1080.22V140.569H1102.16V137.061Z" fill="#334E5C"/>
<path d="M1102.16 129.838H1080.22V133.346H1102.16V129.838Z" fill="#334E5C"/>
<g style="mix-blend-mode:multiply">
<path d="M1105.01 13.9707H1091.17V147.376H1105.01V13.9707Z" fill="#DEDEDE"/>
</g>
<path d="M1121.56 0H1105.01V147.376H1121.56V0Z" fill="#EFCA58"/>
<path d="M1121.56 38.4343H1105.01V108.942H1121.56V38.4343Z" fill="#E27B47"/>
<g style="mix-blend-mode:multiply">
<path d="M1121.56 0H1113.29V147.376H1121.56V0Z" fill="#DEDEDE"/>
</g>
<path d="M1136.83 0H1120.28V147.376H1136.83V0Z" fill="#334E5C"/>
<path d="M1136.83 6.36108H1120.28V10.1659H1136.83V6.36108Z" fill="#46B29E"/>
<path d="M1136.83 136.913H1120.28V140.717H1136.83V136.913Z" fill="#46B29E"/>
<path d="M1128.7 15.5759H1128.41C1126.2 15.5759 1124.42 17.3592 1124.42 19.5591V125.855C1124.42 128.055 1126.2 129.838 1128.41 129.838H1128.7C1130.91 129.838 1132.69 128.055 1132.69 125.855V19.5591C1132.69 17.3592 1130.91 15.5759 1128.7 15.5759Z" fill="#46B29E"/>
<g style="mix-blend-mode:multiply">
<path d="M1136.83 0H1128.55V147.376H1136.83V0Z" fill="#DEDEDE"/>
</g>
<path d="M1077.66 8.26343H1042.04V147.376H1077.66V8.26343Z" fill="#334E5C"/>
<path d="M1077.66 126.093H1042.04V141.966H1077.66V126.093Z" fill="#E27B47"/>
<path d="M1077.66 120.059H1042.04V122.585H1077.66V120.059Z" fill="#E27B47"/>
<path d="M1077.66 13.9707H1042.04V16.7351H1077.66V13.9707Z" fill="#E27B47"/>
<path d="M1070.28 117.205H1049.78C1047.28 117.205 1045.25 115.184 1045.25 112.687V25.0282C1045.25 22.5313 1047.28 20.51 1049.78 20.51H1070.28C1072.78 20.51 1074.81 22.5313 1074.81 25.0282V112.687C1074.81 115.184 1072.78 117.205 1070.28 117.205ZM1049.78 22.3827C1048.32 22.3827 1047.16 23.5717 1047.16 24.9985V112.657C1047.16 114.114 1048.35 115.273 1049.78 115.273H1070.28C1071.74 115.273 1072.9 114.084 1072.9 112.657V25.0282C1072.9 23.5717 1071.71 22.4124 1070.28 22.4124H1049.78V22.3827Z" fill="#E27B47"/>
<g style="mix-blend-mode:multiply">
<path d="M1077.66 8.26343H1060.01V147.376H1077.66V8.26343Z" fill="#DEDEDE"/>
</g>
<path d="M857.432 0H840.884V147.376H857.432V0Z" fill="#EFCA58"/>
<path d="M857.431 38.4343H840.884V108.942H857.431V38.4343Z" fill="#E27B47"/>
<g style="mix-blend-mode:multiply">
<path d="M857.431 0H849.158V147.376H857.431V0Z" fill="#DEDEDE"/>
</g>
<path d="M872.699 0H856.152V147.376H872.699V0Z" fill="#334E5C"/>
<path d="M872.699 6.36108H856.152V10.1659H872.699V6.36108Z" fill="#46B29E"/>
<path d="M872.699 136.913H856.152V140.717H872.699V136.913Z" fill="#46B29E"/>
<path d="M864.574 15.5759H864.277C862.074 15.5759 860.289 17.3592 860.289 19.5591V125.855C860.289 128.055 862.074 129.838 864.277 129.838H864.574C866.777 129.838 868.562 128.055 868.562 125.855V19.5591C868.562 17.3592 866.777 15.5759 864.574 15.5759Z" fill="#46B29E"/>
<g style="mix-blend-mode:multiply">
<path d="M872.699 0H864.425V147.376H872.699V0Z" fill="#DEDEDE"/>
</g>
<path d="M889.216 0H872.669V147.376H889.216V0Z" fill="#EE3A59"/>
<path d="M889.216 6.36108H872.669V10.1659H889.216V6.36108Z" fill="#EFCA58"/>
<path d="M889.216 136.913H872.669V140.717H889.216V136.913Z" fill="#EFCA58"/>
<path d="M889.216 15.5759H872.669V17.9539H889.216V15.5759Z" fill="#EFCA58"/>
<path d="M884.455 72.707C884.455 96.7544 882.877 116.254 880.943 116.254C879.008 116.254 877.431 96.7544 877.431 72.707C877.431 48.6596 879.008 29.1602 880.943 29.1602C882.877 29.1602 884.455 48.6596 884.455 72.707Z" fill="#EFCA58"/>
<g style="mix-blend-mode:multiply">
<path d="M889.216 0H880.943V147.376H889.216V0Z" fill="#DEDEDE"/>
</g>
<path d="M924.81 8.26343H889.187V147.376H924.81V8.26343Z" fill="#334E5C"/>
<path d="M924.81 126.093H889.187V141.966H924.81V126.093Z" fill="#E27B47"/>
<path d="M924.81 120.059H889.187V122.585H924.81V120.059Z" fill="#E27B47"/>
<path d="M924.81 13.9707H889.187V16.7351H924.81V13.9707Z" fill="#E27B47"/>
<path d="M917.43 117.205H896.924C894.424 117.205 892.401 115.184 892.401 112.687V25.0282C892.401 22.5313 894.424 20.51 896.924 20.51H917.43C919.93 20.51 921.953 22.5313 921.953 25.0282V112.687C921.953 115.184 919.93 117.205 917.43 117.205ZM896.924 22.3827C895.466 22.3827 894.305 23.5717 894.305 24.9985V112.657C894.305 114.114 895.496 115.273 896.924 115.273H917.43C918.888 115.273 920.049 114.084 920.049 112.657V25.0282C920.049 23.5717 918.858 22.4124 917.43 22.4124H896.924V22.3827Z" fill="#E27B47"/>
<g style="mix-blend-mode:multiply">
<path d="M924.81 8.26343H907.162V147.376H924.81V8.26343Z" fill="#DEDEDE"/>
</g>
<path d="M1153.02 34.1538H1136.47V147.227H1153.02V34.1538Z" fill="#EE3A59"/>
<path d="M1153.02 41.1392H1136.47V43.9927H1153.02V41.1392Z" fill="#EFCA58"/>
<path d="M1153.02 137.448H1136.47V143.125H1153.02V137.448Z" fill="#334E5C"/>
<path d="M1153.02 132.424H1136.47V134.059H1153.02V132.424Z" fill="#334E5C"/>
<g style="mix-blend-mode:multiply">
<path d="M1153.02 34.1538H1144.74V147.227H1153.02V34.1538Z" fill="#DEDEDE"/>
</g>
<path d="M1169.99 33.6399L1153.51 35.1292L1163.71 147.742L1180.19 146.253L1169.99 33.6399Z" fill="#46B29E"/>
<path d="M1170.88 43.4246L1154.4 44.9138L1155.89 61.3736L1172.37 59.8843L1170.88 43.4246Z" fill="#334E5C"/>
<path d="M1172.39 59.9016L1155.91 61.3909L1156.65 69.5319L1173.13 68.0427L1172.39 59.9016Z" fill="#EFCA58"/>
<g style="mix-blend-mode:multiply">
<path d="M1169.99 33.6143L1161.75 34.3589L1171.95 146.972L1180.19 146.228L1169.99 33.6143Z" fill="#DEDEDE"/>
</g>
<path d="M822.403 147.465H838.95V0.0890656H822.403V147.465Z" fill="#334E5C"/>
<path d="M822.403 109.031H838.95V38.5234H822.403V109.031Z" fill="#EFCA58"/>
<g style="mix-blend-mode:multiply">
<path d="M822.403 147.465H830.676V0.0890656H822.403V147.465Z" fill="#DEDEDE"/>
</g>
<path d="M1317.72 0H1301.17V147.376H1317.72V0Z" fill="#EFCA58"/>
<path d="M1317.72 38.4343H1301.17V108.942H1317.72V38.4343Z" fill="#E27B47"/>
<g style="mix-blend-mode:multiply">
<path d="M1317.69 0H1309.41V147.376H1317.69V0Z" fill="#DEDEDE"/>
</g>
<path d="M1332.95 0H1316.41V147.376H1332.95V0Z" fill="#334E5C"/>
<path d="M1332.95 6.36108H1316.41V10.1659H1332.95V6.36108Z" fill="#46B29E"/>
<path d="M1332.95 136.913H1316.41V140.717H1332.95V136.913Z" fill="#46B29E"/>
<path d="M1324.83 15.5759H1324.53C1322.33 15.5759 1320.54 17.3592 1320.54 19.5591V125.855C1320.54 128.055 1322.33 129.838 1324.53 129.838H1324.83C1327.03 129.838 1328.82 128.055 1328.82 125.855V19.5591C1328.82 17.3592 1327.03 15.5759 1324.83 15.5759Z" fill="#46B29E"/>
<g style="mix-blend-mode:multiply">
<path d="M1332.95 0H1324.68V147.376H1332.95V0Z" fill="#DEDEDE"/>
</g>
<path d="M1282.69 147.465H1299.23V0.0890656H1282.69V147.465Z" fill="#334E5C"/>
<path d="M1282.69 109.031H1299.23V38.5234H1282.69V109.031Z" fill="#EFCA58"/>
<g style="mix-blend-mode:multiply">
<path d="M1282.69 147.465H1290.96V0.0890656H1282.69V147.465Z" fill="#DEDEDE"/>
</g>
<path d="M1247.09 147.465H1282.72V8.35281H1247.09V147.465Z" fill="#EE3A59"/>
<path d="M1249.32 134.297H1280.48V21.521H1249.32V134.297ZM1278.58 132.662H1251.23V23.1559H1278.58V132.662Z" fill="#EFCA58"/>
<path d="M1249.32 16.854L1280.48 16.854V12.8114L1249.32 12.8114V16.854Z" fill="#EFCA58"/>
<path d="M1249.32 144.284H1280.48V137.15H1249.32V144.284Z" fill="#EFCA58"/>
<g style="mix-blend-mode:multiply">
<path d="M1247.09 147.465H1264.89V8.35281H1247.09V147.465Z" fill="#DEDEDE"/>
</g>
<path d="M1225.01 147.465H1247.27V14.0597H1225.01V147.465Z" fill="#EFCA58"/>
<path d="M1225.01 29.2195L1247.27 29.2195V20.5696L1225.01 20.5696V29.2195Z" fill="#46B29E"/>
<path d="M1225.01 147.465H1247.27V109.031H1225.01V147.465Z" fill="#46B29E"/>
<path d="M1236.11 97.5866C1239.63 97.5866 1242.48 83.6528 1242.48 66.4647C1242.48 49.2765 1239.63 35.3428 1236.11 35.3428C1232.59 35.3428 1229.74 49.2765 1229.74 66.4647C1229.74 83.6528 1232.59 97.5866 1236.11 97.5866Z" fill="#46B29E"/>
<path d="M1225.01 120.148H1247.27V115.392H1225.01V120.148Z" fill="#EFCA58"/>
<g style="mix-blend-mode:multiply">
<path d="M1225.01 147.465H1236.14V14.0597H1225.01V147.465Z" fill="#DEDEDE"/>
</g>
<path d="M1180.67 147.465H1202.93V14.0597H1180.67V147.465Z" fill="#46B29E"/>
<path d="M1180.67 120.148H1202.93V50.8888H1180.67V120.148Z" fill="#334E5C"/>
<path d="M1180.67 134.267H1202.93V128.233H1180.67V134.267Z" fill="#334E5C"/>
<path d="M1180.67 24.9094L1202.93 24.9094V20.5696L1180.67 20.5696V24.9094Z" fill="#334E5C"/>
<g style="mix-blend-mode:multiply">
<path d="M1180.67 147.465H1191.8V14.0597H1180.67V147.465Z" fill="#DEDEDE"/>
</g>
<path d="M1202.75 147.465H1225.01V14.0597H1202.75V147.465Z" fill="#E27B47"/>
<path d="M1204.95 145.235H1222.75V16.2891H1204.95V145.235ZM1220.84 143.333H1206.86V18.1915H1220.84V143.333Z" fill="#334E5C"/>
<path d="M1209.09 122.704H1218.64V38.8503H1209.09V122.704Z" fill="#334E5C"/>
<path d="M1213.85 32.7566C1215.81 32.7566 1217.39 31.173 1217.39 29.2194C1217.39 27.2658 1215.81 25.6821 1213.85 25.6821C1211.89 25.6821 1210.31 27.2658 1210.31 29.2194C1210.31 31.173 1211.89 32.7566 1213.85 32.7566Z" fill="#334E5C"/>
<path d="M1210.31 134.119C1210.31 136.08 1211.88 137.656 1213.85 137.656C1215.81 137.656 1217.39 136.08 1217.39 134.119C1217.39 132.157 1215.81 130.581 1213.85 130.581C1211.88 130.581 1210.31 132.157 1210.31 134.119Z" fill="#334E5C"/>
<g style="mix-blend-mode:multiply">
<path d="M1202.75 147.465H1213.88V14.0597H1202.75V147.465Z" fill="#DEDEDE"/>
</g>
<path d="M1026.83 147.465H1043.38V0.0890656H1026.83V147.465Z" fill="#334E5C"/>
<path d="M1026.83 109.031H1043.38V38.5234H1026.83V109.031Z" fill="#EFCA58"/>
<g style="mix-blend-mode:multiply">
<path d="M1026.83 147.465H1035.1V0.0890656H1026.83V147.465Z" fill="#DEDEDE"/>
</g>
<path d="M991.207 147.465H1026.83V8.35281H991.207V147.465Z" fill="#EE3A59"/>
<path d="M993.439 134.297H1024.6V21.521H993.439V134.297ZM1022.69 132.662H995.344V23.1559H1022.69V132.662Z" fill="#EFCA58"/>
<path d="M993.439 16.854L1024.6 16.854V12.8114L993.439 12.8114V16.854Z" fill="#EFCA58"/>
<path d="M993.439 144.284H1024.6V137.15H993.439V144.284Z" fill="#EFCA58"/>
<g style="mix-blend-mode:multiply">
<path d="M991.207 147.465H1009V8.35281H991.207V147.465Z" fill="#DEDEDE"/>
</g>
<path d="M969.125 147.465H991.386V14.0597H969.125V147.465Z" fill="#EFCA58"/>
<path d="M969.125 29.2195L991.386 29.2195V20.5696L969.125 20.5696V29.2195Z" fill="#46B29E"/>
<path d="M969.125 147.465H991.386V109.031H969.125V147.465Z" fill="#46B29E"/>
<path d="M980.225 97.5866C983.743 97.5866 986.594 83.6528 986.594 66.4647C986.594 49.2765 983.743 35.3428 980.225 35.3428C976.708 35.3428 973.856 49.2765 973.856 66.4647C973.856 83.6528 976.708 97.5866 980.225 97.5866Z" fill="#46B29E"/>
<path d="M969.125 120.148H991.386V115.392H969.125V120.148Z" fill="#EFCA58"/>
<g style="mix-blend-mode:multiply">
<path d="M969.124 147.465H980.255V14.0597H969.124V147.465Z" fill="#DEDEDE"/>
</g>
<path d="M924.81 147.465H947.072V14.0597H924.81V147.465Z" fill="#46B29E"/>
<path d="M924.81 120.148H947.072V50.8888H924.81V120.148Z" fill="#334E5C"/>
<path d="M924.81 134.267H947.072V128.233H924.81V134.267Z" fill="#334E5C"/>
<path d="M924.81 24.9094L947.072 24.9094V20.5696L924.81 20.5696V24.9094Z" fill="#334E5C"/>
<g style="mix-blend-mode:multiply">
<path d="M924.81 147.465H935.941V14.0597H924.81V147.465Z" fill="#DEDEDE"/>
</g>
<path d="M946.863 147.465H969.125V14.0597H946.863V147.465Z" fill="#E27B47"/>
<path d="M949.066 145.235H966.863V16.2891H949.066V145.235ZM964.958 143.333H950.97V18.1915H964.958V143.333Z" fill="#334E5C"/>
<path d="M953.202 122.704H962.756V38.8503H953.202V122.704Z" fill="#334E5C"/>
<path d="M957.964 32.7566C959.92 32.7566 961.506 31.173 961.506 29.2194C961.506 27.2658 959.92 25.6821 957.964 25.6821C956.008 25.6821 954.423 27.2658 954.423 29.2194C954.423 31.173 956.008 32.7566 957.964 32.7566Z" fill="#334E5C"/>
<path d="M954.452 134.119C954.452 136.08 956.03 137.656 957.994 137.656C959.958 137.656 961.535 136.08 961.535 134.119C961.535 132.157 959.958 130.581 957.994 130.581C956.03 130.581 954.452 132.157 954.452 134.119Z" fill="#334E5C"/>
<g style="mix-blend-mode:multiply">
<path d="M946.863 147.465H957.994V14.0597H946.863V147.465Z" fill="#DEDEDE"/>
</g>
<path d="M188.654 146.607L205.178 147.472L211.103 34.5536L194.579 33.6886L188.654 146.607Z" fill="#334E5C"/>
<path d="M193.819 47.6328L210.343 48.4978L210.559 44.3717L194.035 43.5068L193.819 47.6328Z" fill="#E27B47"/>
<path d="M191.83 86.013L208.354 86.8779L210.368 48.4964L193.844 47.6314L191.83 86.013Z" fill="#EFCA58"/>
<path d="M188.91 141.205L205.434 142.07L205.665 137.677L189.14 136.812L188.91 141.205Z" fill="#E27B47"/>
<g style="mix-blend-mode:multiply">
<path d="M188.661 146.593L196.924 147.026L202.849 34.1075L194.586 33.6751L188.661 146.593Z" fill="#DEDEDE"/>
</g>
</svg>
