<svg width="719" height="382" viewBox="0 0 719 382" fill="none" xmlns="http://www.w3.org/2000/svg">
<path d="M314.727 356.164C294.81 365.342 248.904 368.276 225.9 368.276C179.863 368.276 162.2 350.084 132.134 317.24C47.9327 356.164 1.81047 288 27.9363 228.937C-28.0534 179.632 4.81043 69.7287 84.8105 81C126.81 19 152.721 6 220.81 0C269.708 0 339.811 17.1379 373.127 69.7287C381.81 60 404.81 50 415.811 69.7287C440.811 56.1379 478.998 48.6882 517.811 60C575.667 76.8621 576.66 122.825 584.811 122.825C657.81 109 707.811 147.874 717.811 228.937C727.81 310 600.81 381.138 530.81 338C519.451 331 513.711 325.937 505.954 324.908C479.177 359.274 438.905 381.138 393.87 381.138C364.699 381.138 337.527 371.965 314.727 356.164Z" fill="white"/>
</svg>
