<svg width="1512" height="102" viewBox="0 0 1512 102" fill="none" xmlns="http://www.w3.org/2000/svg">
<path fill-rule="evenodd" clip-rule="evenodd" d="M957.012 56.2397C945.908 40.9457 919.421 32.7311 882.963 45.1058C881.862 44.2227 880.769 43.342 879.681 42.4659C859.508 26.2129 841.266 11.5154 809.991 11.5154C793.522 11.5154 766.495 19.819 752.235 24.6438C735.911 16.3372 716.457 11.5154 695.572 11.5154C663.329 11.5153 634.495 23.0088 615.324 41.0748C611.131 40.6662 607.761 39.0485 602.86 36.6963L602.857 36.6951C601.269 35.9326 599.519 35.093 597.529 34.1923C572.575 22.9015 537.505 26.503 509.462 38.226C469.866 14.8475 427.331 8.51307 396.719 6.73365C339.768 3.4232 296.425 9.6762 243.811 39.7273C243.811 39.7273 222.842 27.3317 202.566 39.7273C178.409 31.4622 139.18 24.757 104.004 33.8109C66.0193 43.5877 53.3533 58.3546 46.4825 66.3652C43.5198 69.8193 41.6346 72.0172 39.2617 72.0172C-11.9934 65.9083 -51.5147 76.7197 -73 102L466.112 102H969.246L1585 102C1563.51 76.7197 1523.99 65.9083 1472.74 72.0172C1470.47 72.0172 1468.78 69.7074 1466.19 66.1722C1459.77 57.4095 1447.83 41.1176 1408 33.8109C1370.49 26.9317 1333.59 31.4622 1309.43 39.7273C1289.16 27.3317 1268.19 39.7273 1268.19 39.7273C1225.28 7.83711 1176.34 -1.14298 1127.51 0.112774C1096.44 0.911721 1030.17 8.8771 989.589 46.5819C977.627 49.1472 966.703 52.4232 957.012 56.2397Z" fill="white"/>
</svg>
